<?xml version="1.0" standalone="no"?>
<!DOCTYPE svg PUBLIC "-//W3C//DTD SVG 20010904//EN" "http://www.w3.org/TR/2001/REC-SVG-20010904/DTD/svg10.dtd">
<!-- Created using Karbon, part of Calligra: http://www.calligra.org/karbon -->
<svg xmlns="http://www.w3.org/2000/svg" xmlns:xlink="http://www.w3.org/1999/xlink" width="24pt" height="24pt">
<defs/>
<g id="layer1">
  <g id="g3905" transform="translate(-0.838525, -0.279526)" fill="none">
   <path id="path2989-1" transform="matrix(0 -1 1 0 0.838525 30.2795)" fill="#808080" d="M1.72085e-15 0L20 10L23 15L10 8L17 15L10 22L23 15L20 10L30 15L0 30L5 15L0 0"/>
   <path id="path3786-2" transform="matrix(0 -1 1 0 3.83853 27.2795)" fill="#808080" stroke="#808080" stroke-width="1.34164071000" stroke-linecap="round" stroke-linejoin="miter" stroke-miterlimit="4.00000000000" d="M0 0L12 0"/>
   <path id="path3786-5-6-66" transform="matrix(0 -1 1 0 27.8385 27.2795)" fill="#808080" stroke="#808080" stroke-width="1.34164071000" stroke-linecap="round" stroke-linejoin="miter" stroke-miterlimit="4.00000000000" d="M0 0L12 0"/>
   <path id="rect3838-4" transform="matrix(0 -1 1 0 11.8385 29.2795)" fill="#808080" fill-rule="evenodd" d="M0 0L4 1L4 7L0 8Z"/>
  </g>
 </g>
</svg>
